# xmcd CD database file
#
# Track frame offsets:
#	150
#	22032
#	43350
#	62644
#	86517
#	101567
#	126292
#	142763
#	162752
#	180054
#	211166
#	223899
#	245664
#	263482
#	280114
#
# Disc length: 4030 seconds
#
# Revision: 0
# Processed by: cddbd v1.4PL0 Copyright (c) Steve Scherf et al.
# Submitted via: Feurio! 1.65 - http://www.feurio.com
#
DISCID=d00fbc0f
DTITLE=Stan West - West Coast Slide
DYEAR=1996
DGENRE=blues
TTITLE0=My Blues
TTITLE1=No More
TTITLE2=Sellin' Mr. Johnson
TTITLE3=Blue Voodoo
TTITLE4=Play The Blues
TTITLE5=Freedom's Ring
TTITLE6=Under My Hood
TTITLE7=Rest In My Arms
TTITLE8=Red One's For Me
TTITLE9=The Stalker
TTITLE10=All Finished
TTITLE11=My Old Friend
TTITLE12=Muddy And Me
TTITLE13=Walkin' Round Blues
TTITLE14=West Coast Slide
EXTD=RES-O-NATOR Records
EXTT0=
EXTT1=
EXTT2=
EXTT3=
EXTT4=
EXTT5=
EXTT6=
EXTT7=
EXTT8=
EXTT9=
EXTT10=
EXTT11=
EXTT12=
EXTT13=
EXTT14=
PLAYORDER=
